<mxfile host="app.diagrams.net" modified="2021-04-12T15:47:22.532Z" agent="5.0 (Windows NT 10.0; Win64; x64) AppleWebKit/537.36 (KHTML, like Gecko) Chrome/88.0.4324.150 Safari/537.36" etag="wKdiEaqWSnWz-U7b4uTV" version="14.5.10" type="github">
  <diagram id="5jUFQgkJsO8h38DsnRNm" name="第 1 页">
    <mxGraphModel dx="733" dy="547" grid="1" gridSize="10" guides="1" tooltips="1" connect="1" arrows="1" fold="1" page="1" pageScale="1" pageWidth="827" pageHeight="1169" math="0" shadow="0">
      <root>
        <mxCell id="0" />
        <mxCell id="1" parent="0" />
        <mxCell id="5CEA3FZ-OU2mtAjjUdi9-3" value="" style="edgeStyle=orthogonalEdgeStyle;rounded=0;orthogonalLoop=1;jettySize=auto;html=1;" edge="1" parent="1" source="5CEA3FZ-OU2mtAjjUdi9-1" target="5CEA3FZ-OU2mtAjjUdi9-2">
          <mxGeometry relative="1" as="geometry" />
        </mxCell>
        <mxCell id="5CEA3FZ-OU2mtAjjUdi9-7" value="" style="edgeStyle=orthogonalEdgeStyle;rounded=0;orthogonalLoop=1;jettySize=auto;html=1;" edge="1" parent="1" source="5CEA3FZ-OU2mtAjjUdi9-1" target="5CEA3FZ-OU2mtAjjUdi9-6">
          <mxGeometry relative="1" as="geometry" />
        </mxCell>
        <mxCell id="5CEA3FZ-OU2mtAjjUdi9-1" value="涉黄网站url" style="rounded=0;whiteSpace=wrap;html=1;" vertex="1" parent="1">
          <mxGeometry x="380" y="240" width="120" height="60" as="geometry" />
        </mxCell>
        <mxCell id="5CEA3FZ-OU2mtAjjUdi9-5" value="" style="edgeStyle=orthogonalEdgeStyle;rounded=0;orthogonalLoop=1;jettySize=auto;html=1;" edge="1" parent="1" source="5CEA3FZ-OU2mtAjjUdi9-2" target="5CEA3FZ-OU2mtAjjUdi9-4">
          <mxGeometry relative="1" as="geometry" />
        </mxCell>
        <mxCell id="5CEA3FZ-OU2mtAjjUdi9-2" value="页面内其他url" style="whiteSpace=wrap;html=1;rounded=0;" vertex="1" parent="1">
          <mxGeometry x="530" y="240" width="120" height="60" as="geometry" />
        </mxCell>
        <mxCell id="5CEA3FZ-OU2mtAjjUdi9-22" value="" style="edgeStyle=orthogonalEdgeStyle;rounded=0;orthogonalLoop=1;jettySize=auto;html=1;" edge="1" parent="1" source="5CEA3FZ-OU2mtAjjUdi9-4" target="5CEA3FZ-OU2mtAjjUdi9-21">
          <mxGeometry relative="1" as="geometry" />
        </mxCell>
        <mxCell id="5CEA3FZ-OU2mtAjjUdi9-4" value="存入数据库" style="whiteSpace=wrap;html=1;rounded=0;" vertex="1" parent="1">
          <mxGeometry x="530" y="330" width="120" height="60" as="geometry" />
        </mxCell>
        <mxCell id="5CEA3FZ-OU2mtAjjUdi9-8" value="" style="edgeStyle=orthogonalEdgeStyle;rounded=0;orthogonalLoop=1;jettySize=auto;html=1;" edge="1" parent="1" source="5CEA3FZ-OU2mtAjjUdi9-6" target="5CEA3FZ-OU2mtAjjUdi9-4">
          <mxGeometry relative="1" as="geometry" />
        </mxCell>
        <mxCell id="5CEA3FZ-OU2mtAjjUdi9-6" value="网址拼合" style="whiteSpace=wrap;html=1;rounded=0;" vertex="1" parent="1">
          <mxGeometry x="380" y="330" width="120" height="60" as="geometry" />
        </mxCell>
        <mxCell id="5CEA3FZ-OU2mtAjjUdi9-21" value="等待下一步识别" style="whiteSpace=wrap;html=1;rounded=0;" vertex="1" parent="1">
          <mxGeometry x="530" y="420" width="120" height="60" as="geometry" />
        </mxCell>
      </root>
    </mxGraphModel>
  </diagram>
</mxfile>
